<svg class="animated" id="freepik_stories-kids-playing-with-dolls" xmlns="http://www.w3.org/2000/svg" viewBox="0 0 500 500" version="1.1" xmlns:xlink="http://www.w3.org/1999/xlink" xmlns:svgjs="http://svgjs.com/svgjs"><style>svg#freepik_stories-kids-playing-with-dolls:not(.animated) .animable {opacity: 0;}svg#freepik_stories-kids-playing-with-dolls.animated #freepik--character-2--inject-132 {animation: 3s Infinite  linear floating;animation-delay: 0s;}            @keyframes floating {                0% {                    opacity: 1;                    transform: translateY(0px);                }                50% {                    transform: translateY(-10px);                }                100% {                    opacity: 1;                    transform: translateY(0px);                }            }        </style><g id="freepik--background-simple--inject-132" class="animable" style="transform-origin: 250.421px 243.566px;"><path d="M127.06,137.48a98.28,98.28,0,0,1,11-11.53c12-10.62,26.86-18.26,42.74-20.36s32.71,1.64,45.38,11.43c29.42,22.75,29.36,69.42,56.67,94.65a59.8,59.8,0,0,0,38.17,15.69c11.25.37,22.34-2.45,33.53-3.64s23.29-.5,32.47,6c8.91,6.32,13.67,17.42,14,28.34s-3.25,21.64-8.4,31.28c-29.62,55.43-98.81,94.6-161.47,92.7-39.52-1.2-77.5-22.17-100.17-54.44-17-24.25-26.57-53.3-30-82.75C96.74,207.32,103.6,166.32,127.06,137.48Z" style="fill: rgb(197, 63, 63); transform-origin: 250.421px 243.566px;" id="elt4b9gl6co7" class="animable"></path><g id="elrgi5tr3pgq"><path d="M127.06,137.48a98.28,98.28,0,0,1,11-11.53c12-10.62,26.86-18.26,42.74-20.36s32.71,1.64,45.38,11.43c29.42,22.75,29.36,69.42,56.67,94.65a59.8,59.8,0,0,0,38.17,15.69c11.25.37,22.34-2.45,33.53-3.64s23.29-.5,32.47,6c8.91,6.32,13.67,17.42,14,28.34s-3.25,21.64-8.4,31.28c-29.62,55.43-98.81,94.6-161.47,92.7-39.52-1.2-77.5-22.17-100.17-54.44-17-24.25-26.57-53.3-30-82.75C96.74,207.32,103.6,166.32,127.06,137.48Z" style="fill: rgb(255, 255, 255); opacity: 0.9; isolation: isolate; transform-origin: 250.421px 243.566px;" class="animable"></path></g></g><g id="freepik--Shadow--inject-132" class="animable" style="transform-origin: 250px 416.24px;"><ellipse id="freepik--path--inject-132" cx="250" cy="416.24" rx="193.89" ry="11.32" style="fill: rgb(245, 245, 245); transform-origin: 250px 416.24px;" class="animable"></ellipse></g><g id="freepik--Lamp--inject-132" class="animable" style="transform-origin: 224.955px 301.68px;"><polygon points="250.25 410.65 227.91 262.16 227.91 410.65 221.91 410.65 221.91 261.23 199.53 410.65 193.1 410.65 221.11 223.62 221.91 223.74 221.91 217.65 227.91 217.65 227.91 223.72 228.73 223.62 256.81 410.65 250.25 410.65" style="fill: rgb(38, 50, 56); transform-origin: 224.955px 314.15px;" id="elw4zslcxru7" class="animable"></polygon><g id="el8lswo2w1zn7"><polygon points="250.25 410.65 227.91 262.16 227.91 410.65 221.91 410.65 221.91 261.23 199.53 410.65 193.1 410.65 221.11 223.62 221.91 223.74 221.91 217.65 227.91 217.65 227.91 223.72 228.73 223.62 256.81 410.65 250.25 410.65" style="fill: rgb(255, 255, 255); opacity: 0.2; isolation: isolate; transform-origin: 224.955px 314.15px;" class="animable"></polygon></g><polygon points="194.16 244.36 255.98 244.36 250.97 192.71 199.16 192.71 194.16 244.36" style="fill: rgb(197, 63, 63); transform-origin: 225.07px 218.535px;" id="elqirladi9pn" class="animable"></polygon><g id="eltrhqamhsu4"><g style="opacity: 0.4; isolation: isolate; transform-origin: 225.07px 218.535px;" class="animable"><polygon points="194.16 244.36 255.98 244.36 250.97 192.71 199.16 192.71 194.16 244.36" style="fill: rgb(255, 255, 255); transform-origin: 225.07px 218.535px;" id="eliun4df7oz7i" class="animable"></polygon></g></g></g><g id="freepik--Sofa--inject-132" class="animable" style="transform-origin: 329.43px 349.565px;"><path d="M416,288.48H307.57a8.83,8.83,0,0,0-8.83,8.83l-12,76.47H412.86l12-76.47A8.83,8.83,0,0,0,416,288.48Z" style="fill: rgb(197, 63, 63); transform-origin: 355.8px 331.13px;" id="elnajtbjbf0s" class="animable"></path><g id="elr14rmsimhmb"><path d="M416,288.48H307.57a8.83,8.83,0,0,0-8.83,8.83l-12,76.47H412.86l12-76.47A8.83,8.83,0,0,0,416,288.48Z" style="fill: rgb(255, 255, 255); opacity: 0.4; isolation: isolate; transform-origin: 355.8px 331.13px;" class="animable"></path></g><g id="elajgybjcoo2g"><path d="M395.19,374.91h17.67l12-77.6a8.83,8.83,0,0,0-8.84-8.83h0a8.83,8.83,0,0,0-8.83,8.83Z" style="opacity: 0.2; isolation: isolate; transform-origin: 410.025px 331.695px;" class="animable"></path></g><path d="M287.06,318.05H245.19l-.44,0A10.77,10.77,0,0,0,234,328.8v81.85h63.22V328.8A10.61,10.61,0,0,0,287.06,318.05Z" style="fill: rgb(197, 63, 63); transform-origin: 265.611px 364.35px;" id="eluaxz4x5v7bn" class="animable"></path><g id="eliz05zla0t5"><path d="M287.06,318.05H245.19l-.44,0A10.77,10.77,0,0,0,234,328.8v81.85h63.22V328.8A10.61,10.61,0,0,0,287.06,318.05Z" style="fill: rgb(255, 255, 255); opacity: 0.5; isolation: isolate; transform-origin: 265.611px 364.35px;" class="animable"></path></g><g id="elbb65dhl6abr"><path d="M244.75,318h0A10.77,10.77,0,0,0,234,328.8v81.85h21.55V328.8A10.77,10.77,0,0,0,244.75,318Z" style="fill: rgb(255, 255, 255); opacity: 0.6; isolation: isolate; transform-origin: 244.775px 364.325px;" class="animable"></path></g><rect x="262.56" y="345.15" width="92.41" height="65.5" style="fill: rgb(197, 63, 63); transform-origin: 308.765px 377.9px;" id="elhaa5cb0e19a" class="animable"></rect><g id="el1lyzd5mrmh7"><rect x="262.56" y="345.15" width="92.41" height="65.5" style="fill: rgb(255, 255, 255); opacity: 0.4; isolation: isolate; transform-origin: 308.765px 377.9px;" class="animable"></rect></g><path d="M268.58,338.44h104a0,0,0,0,1,0,0v22.71a0,0,0,0,1,0,0h-104a11.36,11.36,0,0,1-11.36-11.36v0a11.36,11.36,0,0,1,11.36-11.36Z" style="fill: rgb(197, 63, 63); transform-origin: 314.9px 349.79px;" id="el6yhjzuauiwn" class="animable"></path><g id="el4scqjwzo7ya"><path d="M268.58,338.44h104a0,0,0,0,1,0,0v22.71a0,0,0,0,1,0,0h-104a11.36,11.36,0,0,1-11.36-11.36v0a11.36,11.36,0,0,1,11.36-11.36Z" style="fill: rgb(255, 255, 255); opacity: 0.6; isolation: isolate; transform-origin: 314.9px 349.79px;" class="animable"></path></g><path d="M408.06,318.05H366.19l-.44,0A10.77,10.77,0,0,0,355,328.8v81.85h63.22V328.8A10.61,10.61,0,0,0,408.06,318.05Z" style="fill: rgb(197, 63, 63); transform-origin: 386.611px 364.35px;" id="eluyq2dvwo6z" class="animable"></path><g id="eltkjl6nb5yqc"><path d="M408.06,318.05H366.19l-.44,0A10.77,10.77,0,0,0,355,328.8v81.85h63.22V328.8A10.61,10.61,0,0,0,408.06,318.05Z" style="fill: rgb(255, 255, 255); opacity: 0.5; isolation: isolate; transform-origin: 386.611px 364.35px;" class="animable"></path></g><g id="elxpl0uumc82s"><path d="M365.75,318h0A10.77,10.77,0,0,0,355,328.8v81.85h21.55V328.8A10.77,10.77,0,0,0,365.75,318Z" style="fill: rgb(255, 255, 255); opacity: 0.6; isolation: isolate; transform-origin: 365.775px 364.325px;" class="animable"></path></g></g><g id="freepik--character-2--inject-132" class="animable" style="transform-origin: 322.215px 261.051px;"><g id="freepik--group--inject-132" class="animable" style="transform-origin: 322.215px 261.051px;"><path d="M339.52,222.64s18.25,46.38,30.91,59.57c0,0-.53,11.08-12.4,6.06s-19.28-6.62-26.65,1.31-17.65,7.63-26.22,0-6.59,1-16.49,2.87S274,283.92,274,283.92s13.51-10.68,19.24-58.85Z" style="fill: rgb(197, 63, 63); transform-origin: 322.215px 259.028px;" id="elqujpj5uyp1l" class="animable"></path><g id="eljp1ksvy91h"><path d="M339.52,222.64s18.25,46.38,30.91,59.57c0,0-.53,11.08-12.4,6.06s-19.28-6.62-26.65,1.31-17.65,7.63-26.22,0-6.59,1-16.49,2.87S274,283.92,274,283.92s13.51-10.68,19.24-58.85Z" style="opacity: 0.2; isolation: isolate; transform-origin: 322.215px 259.028px;" class="animable"></path></g><path d="M299.16,224.34s-16.06,8.41-19.62,15.46,13.65,19.94,13.65,19.94,1.56,8.36,3.36,8.86,6.73-5.14,7.12-6.33-6.33-5.5-6.33-5.5-8.9-10.52-8.7-12.9,13.85-10.68,13.85-10.68Z" style="fill: rgb(235, 179, 118); transform-origin: 291.371px 246.486px;" id="elty51xew2gus" class="animable"></path><polygon points="293.53 324.13 293.53 334.8 299.98 334.8 300.61 323.27 293.53 324.13" style="fill: rgb(235, 179, 118); transform-origin: 297.07px 329.035px;" id="elqdm4nmrltnp" class="animable"></polygon><path d="M293.89,332.27l6.55-.41a.42.42,0,0,1,.46.37h0l.64,5.16a1,1,0,0,1-1,1.1c-2.28.1-3.38,0-6.26.19a53,53,0,0,1-7.69.25c-2.44-.24-2.14-2.64-1.09-2.76a16,16,0,0,0,7.37-3.51A1.62,1.62,0,0,1,293.89,332.27Z" style="fill: rgb(38, 50, 56); transform-origin: 293.132px 335.415px;" id="elmookj1pscdq" class="animable"></path><path d="M290.77,333.17a.71.71,0,0,1-.21-.74.52.52,0,0,1,.29-.41c.7-.32,2.42.7,2.62.82a.17.17,0,0,1,.06.14.16.16,0,0,1-.1.11,7.36,7.36,0,0,1-1.54.3A1.57,1.57,0,0,1,290.77,333.17Zm.19-.88a.29.29,0,0,0-.14.2.53.53,0,0,0,.13.48c.29.25,1.06.24,2.09,0-.7-.39-1.7-.82-2.08-.65Z" style="fill: rgb(197, 63, 63); transform-origin: 292.03px 332.687px;" id="eltakqgmlh71" class="animable"></path><path d="M293.33,333.1c-.6-.31-1.55-1.48-1.46-2.12a.53.53,0,0,1,.47-.44.73.73,0,0,1,.59.15c.62.54.59,2.24.6,2.29a.19.19,0,0,1-.07.12h-.06A.09.09,0,0,1,293.33,333.1Zm-.94-2.27c-.2,0-.24.13-.25.21a2.91,2.91,0,0,0,1.11,1.71c0-.55-.12-1.51-.5-1.82a.38.38,0,0,0-.3-.11Z" style="fill: rgb(197, 63, 63); transform-origin: 292.697px 331.818px;" id="el8mqthfxjlvw" class="animable"></path><polygon points="337.65 326.01 338.97 330.71 340.19 335.05 346.6 334.3 345.38 328.71 344.22 323.35 337.65 326.01" style="fill: rgb(235, 179, 118); transform-origin: 342.125px 329.2px;" id="ela558o7pjcfc" class="animable"></polygon><path d="M339.89,332.27l6.55-.41a.42.42,0,0,1,.46.37h0l.64,5.16a1,1,0,0,1-1,1.1c-2.28.1-3.38,0-6.26.19a53,53,0,0,1-7.69.25c-2.44-.24-2.14-2.64-1.09-2.76a16,16,0,0,0,7.37-3.51A1.62,1.62,0,0,1,339.89,332.27Z" style="fill: rgb(38, 50, 56); transform-origin: 339.132px 335.415px;" id="elw4i3ltvknz" class="animable"></path><path d="M336.77,333.17a.71.71,0,0,1-.21-.74.52.52,0,0,1,.29-.41c.7-.32,2.42.7,2.62.82a.17.17,0,0,1,.06.14.16.16,0,0,1-.1.11,7.36,7.36,0,0,1-1.54.3A1.57,1.57,0,0,1,336.77,333.17Zm.19-.88a.29.29,0,0,0-.14.2.53.53,0,0,0,.13.48c.29.25,1.06.24,2.09,0-.7-.39-1.7-.82-2.08-.65Z" style="fill: rgb(197, 63, 63); transform-origin: 338.03px 332.687px;" id="elbi1altp3fou" class="animable"></path><path d="M339.33,333.1c-.6-.31-1.55-1.48-1.46-2.12a.53.53,0,0,1,.47-.44.73.73,0,0,1,.59.15c.62.54.59,2.24.6,2.29a.19.19,0,0,1-.07.12h-.06A.09.09,0,0,1,339.33,333.1Zm-.94-2.27c-.2,0-.24.13-.25.21a2.91,2.91,0,0,0,1.11,1.71c0-.55-.12-1.51-.5-1.82a.38.38,0,0,0-.3-.11Z" style="fill: rgb(197, 63, 63); transform-origin: 338.697px 331.818px;" id="elp87vz3nknmn" class="animable"></path><path d="M291.86,328.48S290.15,284,301,257.8l33.89.06s1.9,17.76,12.63,68.37l-11.56,3s-15-24.87-19.23-45.18a158.47,158.47,0,0,0-15.21,44.43Z" style="fill: rgb(38, 50, 56); transform-origin: 319.641px 293.515px;" id="el0fo0oe22irzd" class="animable"></path><path d="M335.91,223.34s16.06,8.41,19.62,15.46-13.65,19.94-13.65,19.94-1.57,8.36-3.36,8.86-6.73-5.14-7.12-6.33,6.33-5.5,6.33-5.5,8.9-10.52,8.7-12.9-13.85-10.68-13.85-10.68Z" style="fill: rgb(235, 179, 118); transform-origin: 343.699px 245.486px;" id="eltyu5uhvemv" class="animable"></path><path d="M304,219.74c-4,.3-16.42,9.21-16.42,9.21l6.78,12,9.38-3.31A19.65,19.65,0,0,0,306,229,24.13,24.13,0,0,0,304,219.74Z" style="fill: rgb(197, 63, 63); transform-origin: 296.79px 230.345px;" id="elaaub70a1g0p" class="animable"></path><g id="el771idwc04z"><path d="M306,229a19.65,19.65,0,0,1-2.32,8.7l-2.68.95-5.74,2-1,.34-6.78-12S299.92,220,304,219.74A24.13,24.13,0,0,1,306,229Z" style="fill: rgb(255, 255, 255); opacity: 0.6; isolation: isolate; transform-origin: 296.74px 230.365px;" class="animable"></path></g><g id="eleeu7f95qvt"><path d="M301,231.79v6.81l-5.74,2C295.73,236.11,301,231.79,301,231.79Z" style="opacity: 0.2; isolation: isolate; transform-origin: 298.13px 236.195px;" class="animable"></path></g><path d="M334.34,238.33a85.75,85.75,0,0,0,.49,17.09,17.17,17.17,0,0,1,.08,2.44L301,257.8c-2.29-22.91-1.51-27.2-.61-33.14a6.92,6.92,0,0,1,5.62-5.73c1.54-.29,3.35-.57,5.2-.73a123.71,123.71,0,0,1,14.41,0c1.8.09,3.63.28,5.28.49l.2,0a5.82,5.82,0,0,1,4.79,6.69C335.07,230.53,334.59,234.77,334.34,238.33Z" style="fill: rgb(197, 63, 63); transform-origin: 317.733px 237.925px;" id="elgg16f0vflp" class="animable"></path><g id="el9e207i1q04e"><path d="M335.91,225.43q-.53,3.23-.88,6c-.32,2.55-.55,4.83-.69,6.89-.1,1.45-.16,2.79-.2,4a92.58,92.58,0,0,0,.69,13.06,17.17,17.17,0,0,1,.08,2.44L301,257.8c-2.29-22.91-1.51-27.2-.61-33.14a6.92,6.92,0,0,1,5.62-5.73c1.54-.29,3.35-.57,5.2-.73a123.71,123.71,0,0,1,14.41,0c1.8.09,3.63.28,5.28.49l.2,0A5.82,5.82,0,0,1,335.91,225.43Z" style="fill: rgb(255, 255, 255); opacity: 0.6; isolation: isolate; transform-origin: 317.747px 237.905px;" class="animable"></path></g><g id="elmaox1sh5kni"><path d="M335,231.44c-.32,2.55-.55,4.83-.69,6.89-.1,1.45-.16,2.79-.2,4-6-5.62-5.08-14.41-5.08-14.41Z" style="opacity: 0.2; isolation: isolate; transform-origin: 331.99px 235.125px;" class="animable"></path></g><path d="M331.12,218.74c4,.3,16.42,9.21,16.42,9.21l-6.78,12-9.38-3.31a19.65,19.65,0,0,1-2.32-8.7A24.13,24.13,0,0,1,331.12,218.74Z" style="fill: rgb(197, 63, 63); transform-origin: 338.3px 229.345px;" id="elnu5qhkaon8" class="animable"></path><g id="el4rsixjgpqi2"><path d="M331.12,218.74c4,.3,16.42,9.21,16.42,9.21l-6.78,12-9.38-3.31a19.65,19.65,0,0,1-2.32-8.7A24.13,24.13,0,0,1,331.12,218.74Z" style="fill: rgb(255, 255, 255); opacity: 0.6; isolation: isolate; transform-origin: 338.3px 229.345px;" class="animable"></path></g><path d="M314.14,224.34a56.08,56.08,0,0,0,25.38-1.7s-1.62-6.56-23.36-5.37-22.9,7.8-22.9,7.8S302,231.37,314.14,224.34Z" style="fill: rgb(197, 63, 63); transform-origin: 316.39px 222.396px;" id="eli5xkh8nwwyl" class="animable"></path><path d="M323.71,218.34c-3.79,3.23-6.61,5.42-11.57,4.94-5.94-.59-3.62-3.29-3.62-3.29a6.79,6.79,0,0,0,3-2.85c.92-1.86.49-4-.36-6.21l1.69-1.49h0l4.63-4.07a1.67,1.67,0,0,1,2.75,1.45C320.24,211.25,321,216.36,323.71,218.34Z" style="fill: rgb(235, 179, 118); transform-origin: 315.892px 214.155px;" id="elqz4n5ft5fw" class="animable"></path><g id="elhoixa35hgmb"><path d="M320.21,208.59s-1.59,9.92-8.7,8.55c.92-1.86.49-4-.36-6.21l1.69-1.49h0Z" style="opacity: 0.2; isolation: isolate; transform-origin: 315.68px 212.93px;" class="animable"></path></g><path d="M305.16,187.92s-7.46,7.75,2.57,14C319.05,209,305.16,187.92,305.16,187.92Z" style="fill: rgb(38, 50, 56); transform-origin: 307.332px 195.647px;" id="elvyi0y1d0l3h" class="animable"></path><path d="M325.55,196.65c-.48,7.08-.36,11.23-4.37,14.85-6,5.46-15.86,2.24-17.76-4.82-1.75-6.35-.65-16.85,7.14-19.67S326,189.58,325.55,196.65Z" style="fill: rgb(235, 179, 118); transform-origin: 314.135px 200.249px;" id="eltcwj60qqmpn" class="animable"></path><path d="M304.69,192.27a17.74,17.74,0,0,0,9.45-.52s3.94.17,3.61,4.63,5,6.25,5.88,12c0,0,5.93-1.43,5.39-14.19-.39-9.3-8.81-11.94-17-10.82C305.15,184.31,300.87,189.84,304.69,192.27Z" style="fill: rgb(38, 50, 56); transform-origin: 316.155px 195.754px;" id="ells5x61huqme" class="animable"></path><path d="M311.17,200.76c.05.62-.24,1.16-.65,1.18s-.78-.45-.83-1.07.25-1.15.66-1.18S311.12,200.14,311.17,200.76Z" style="fill: rgb(38, 50, 56); transform-origin: 310.43px 200.815px;" id="eld0p5q7q0m3a" class="animable"></path><path d="M305.9,200.76c0,.62-.25,1.16-.66,1.18s-.77-.45-.82-1.07.24-1.15.65-1.18S305.85,200.14,305.9,200.76Z" style="fill: rgb(38, 50, 56); transform-origin: 305.157px 200.815px;" id="el9s3udybqoe4" class="animable"></path><path d="M309.6,197.07a.56.56,0,0,1-.2-.11.39.39,0,0,1,.08-.52,3.6,3.6,0,0,1,3.29-.61.37.37,0,0,1,.22.47h0a.38.38,0,0,1-.47.22h0a2.86,2.86,0,0,0-2.61.54A.37.37,0,0,1,309.6,197.07Z" style="fill: rgb(38, 50, 56); transform-origin: 311.173px 196.384px;" id="el5mkabx9lsay" class="animable"></path><path d="M303,196.42a.37.37,0,0,1-.14-.18.36.36,0,0,1,.27-.44,3.61,3.61,0,0,1,3.28.7.37.37,0,0,1,0,.52h0a.37.37,0,0,1-.51,0h0a2.89,2.89,0,0,0-2.63-.51A.35.35,0,0,1,303,196.42Z" style="fill: rgb(38, 50, 56); transform-origin: 304.683px 196.394px;" id="elijm3nmqbs18" class="animable"></path><path d="M307,199.71a19.15,19.15,0,0,1-1.48,5,3.07,3.07,0,0,0,2.6-.09Z" style="fill: rgb(213, 135, 69); transform-origin: 306.82px 202.333px;" id="el3nlpb1mafik" class="animable"></path><path d="M319.73,201.52s1.3-4.09,3.45-3.05,2.39,7.61-.62,7.91S318.58,203.76,319.73,201.52Z" style="fill: rgb(235, 179, 118); transform-origin: 322.034px 202.351px;" id="el6qra6rsdgr2" class="animable"></path><path d="M307.41,206.2a22.31,22.31,0,0,1,1.46,2.76,4.58,4.58,0,0,0,.53-.14c2.41-.64,3.31-1.74,3.58-2.76a3.11,3.11,0,0,0,0-1.52,3,3,0,0,0-.29-.82,11.76,11.76,0,0,1-4.46,2.25C307.73,206.13,307.41,206.2,307.41,206.2Z" style="fill: rgb(38, 50, 56); transform-origin: 310.242px 206.34px;" id="el3j4u9tliihr" class="animable"></path><path d="M308.23,206l.45.8c2.27-.61,3.78-1.35,4.3-2.23a3,3,0,0,0-.29-.82A11.76,11.76,0,0,1,308.23,206Z" style="fill: rgb(255, 255, 255); transform-origin: 310.605px 205.275px;" id="ell7zyvtzv8gt" class="animable"></path><path d="M309.4,208.82c2.41-.64,3.31-1.74,3.58-2.76a8.06,8.06,0,0,0-2.53,1.25A3,3,0,0,0,309.4,208.82Z" style="fill: rgb(222, 87, 83); transform-origin: 311.19px 207.44px;" id="elp3g5g06q118" class="animable"></path><path d="M307.41,191.88s-3.5-.79-2.25,1.91,3.07.86,3.07.86c-1.46.61-3.34-1.84-.16-2Z" style="fill: rgb(38, 50, 56); transform-origin: 306.56px 193.517px;" id="elefbqrk13w36" class="animable"></path><g id="el8yc2jtfg0nm"><circle cx="314.14" cy="237.93" r="10.44" style="fill: rgb(255, 255, 255); opacity: 0.6; isolation: isolate; transform-origin: 314.14px 237.93px; transform: rotate(-45deg);" class="animable"></circle></g><path d="M314.14,223.34a12.48,12.48,0,0,1,9.57,8.36s-6.85,1.19-9.57-5.34c0,0-2.72,5.51-7.37,5.43C306.77,231.79,308.75,224.49,314.14,223.34Z" style="fill: rgb(197, 63, 63); transform-origin: 315.24px 227.565px;" id="elnz0maboxegr" class="animable"></path></g></g><g id="freepik--character-1--inject-132" class="animable" style="transform-origin: 151.158px 383.355px;"><g id="freepik--group--inject-132" class="animable" style="transform-origin: 151.158px 383.355px;"><path d="M170.71,379.86s8.31-11.29,9.72-13.53,6.49-18.57,6.49-18.57a10.91,10.91,0,0,1-.23-2.54c.1-.86,1.13-4.79,1.13-4.79s0-.32,2.28-.7,4.71-1,4.81,0-1.27,7.62-2,8.19a14.68,14.68,0,0,0-1.59,1.55s-4,17.6-5.16,20.12-9.67,15.71-9.67,15.71Z" style="fill: rgb(228, 137, 123); transform-origin: 182.813px 362.244px;" id="el9ufgg0mzt3v" class="animable"></path><path d="M179.54,383.12a21,21,0,0,1-4.76,7.9c-4.28,4.7-9.83,7.46-10.56,2-1.12-8.3,9.08-17.29,9.08-17.29Z" style="fill: rgb(197, 63, 63); transform-origin: 171.837px 385.88px;" id="el6l80b1owg93" class="animable"></path><g id="eltpurl02xny"><path d="M179.54,383.12a21,21,0,0,1-4.76,7.9c-4.28,4.7-9.83,7.46-10.56,2-1.12-8.3,9.08-17.29,9.08-17.29Z" style="fill: rgb(255, 255, 255); opacity: 0.6; isolation: isolate; transform-origin: 171.837px 385.88px;" class="animable"></path></g><polygon points="85.53 395.23 77.27 388.46 81.36 383.47 90.68 390.29 85.53 395.23" style="fill: rgb(235, 179, 118); transform-origin: 83.975px 389.35px;" id="elepgo1po7sx" class="animable"></polygon><path d="M79.46,389.78l4.46-4.8a.41.41,0,0,0,0-.59h0l-3.59-3.76a1,1,0,0,0-1.45,0c-1.53,1.7-2.17,2.59-4.12,4.72a53.81,53.81,0,0,0-5.06,5.8c-1.37,2,.68,3.33,1.44,2.59a16,16,0,0,1,7.39-3.48A1.6,1.6,0,0,0,79.46,389.78Z" style="fill: rgb(38, 50, 56); transform-origin: 76.6424px 387.133px;" id="elsm6yjtzszxf" class="animable"></path><path d="M77.32,390.62a7.83,7.83,0,0,1,1.22-1,.12.12,0,0,1,.14,0,.15.15,0,0,1,.07.13c0,.23-.33,2.21-1,2.55a.52.52,0,0,1-.5,0,.75.75,0,0,1-.45-.64A1.61,1.61,0,0,1,77.32,390.62Zm.27,1.41c.37-.17.67-1.22.82-2-.87.63-1.36,1.21-1.35,1.6a.49.49,0,0,0,.28.4.28.28,0,0,0,.25,0Z" style="fill: rgb(197, 63, 63); transform-origin: 77.775px 390.981px;" id="elhimv6wr8a0r" class="animable"></path><path d="M78.51,389.64l0,0a.15.15,0,0,1,.13,0s1.37,1.1,1.39,1.91a.71.71,0,0,1-.26.56.51.51,0,0,1-.63.08,3,3,0,0,1-.72-2.46A.1.1,0,0,1,78.51,389.64Zm1.16,2.17a.36.36,0,0,0,.11-.29c0-.49-.69-1.18-1.1-1.54a2.86,2.86,0,0,0,.62,1.93c.07,0,.17.08.32-.05Z" style="fill: rgb(197, 63, 63); transform-origin: 79.2067px 390.945px;" id="el5qm2jbbbi2m" class="animable"></path><path d="M173.06,418c-6,2.09-22.23,3.43-35.64,3.28-7.21-.09-13.6-.6-17.09-1.67-4.63-1.41-13.74-7-22.17-12.59-9.72-6.45-18.54-12.88-18.54-12.88l7.3-7.45s18,12.13,21.87,13.3,35.63-7.74,35.63-7.74S182.23,414.76,173.06,418Z" style="fill: rgb(38, 50, 56); transform-origin: 127.057px 403.991px;" id="elhcmcv2qciep" class="animable"></path><g id="elwczr1mvhlka"><path d="M136.83,409l.59,12.25c-7.21-.09-13.6-.6-17.09-1.67-4.63-1.41-13.74-7-22.17-12.59,5.78-.34,25.62-1.47,32.14-2,0,0,5.63-5.31,10.75-4.81C141.05,400.17,137.53,402.23,136.83,409Z" style="opacity: 0.2; isolation: isolate; transform-origin: 119.605px 410.698px;" class="animable"></path></g><polygon points="97.08 418.29 87.13 414.43 89.47 408.42 100.44 412 97.08 418.29" style="fill: rgb(235, 179, 118); transform-origin: 93.785px 413.355px;" id="eloxiik1htfgg" class="animable"></polygon><path d="M89.62,415l2.75-5.95a.42.42,0,0,0-.18-.56h0L87.6,406a1,1,0,0,0-1.36.49c-.93,2.09-1.26,3.14-2.45,5.77a54.9,54.9,0,0,0-3,7.08c-.66,2.36,1.69,2.95,2.18,2a16.22,16.22,0,0,1,5.94-5.6A1.65,1.65,0,0,0,89.62,415Z" style="fill: rgb(38, 50, 56); transform-origin: 86.5443px 413.834px;" id="el7t8fypkwy18" class="animable"></path><path d="M87.85,416.47a6.79,6.79,0,0,1,.84-1.33.11.11,0,0,1,.14-.05.13.13,0,0,1,.1.1c0,.23.37,2.2-.18,2.74a.5.5,0,0,1-.48.12.71.71,0,0,1-.62-.47A1.5,1.5,0,0,1,87.85,416.47Zm.69,1.25c.3-.28.26-1.37.15-2.17-.62.87-.92,1.58-.79,1.94a.52.52,0,0,0,.4.29.23.23,0,0,0,.24-.06Z" style="fill: rgb(197, 63, 63); transform-origin: 88.3348px 416.575px;" id="elhgjjr6rauer" class="animable"></path><path d="M88.68,415.16a.07.07,0,0,1,0-.05.13.13,0,0,1,.13,0c.05,0,1.65.61,1.92,1.38a.73.73,0,0,1-.07.61.53.53,0,0,1-.58.27c-.63-.14-1.38-1.45-1.45-2.12A.1.1,0,0,1,88.68,415.16Zm1.77,1.71a.4.4,0,0,0,0-.32c-.16-.46-1-.9-1.52-1.12a2.87,2.87,0,0,0,1.19,1.65c.08,0,.19,0,.29-.15Z" style="fill: rgb(197, 63, 63); transform-origin: 89.6985px 416.237px;" id="elo34whrbh9cj" class="animable"></path><path d="M95.5,409.16l-1.26,10.26s21.43,7.24,33.88,8.05S172,419.25,172,419.25l-14-18.36s-28.41,12-36.6,12.12S95.5,409.16,95.5,409.16Z" style="fill: rgb(38, 50, 56); transform-origin: 133.12px 414.206px;" id="ela8ms5yy7sqq" class="animable"></path><path d="M196.34,396s15.85,9.91,18.16,11.19,9.64,2.52,9.64,2.52a10.89,10.89,0,0,1,2.53-.38c.87.06,4.84.86,4.84.86s.33,0,.84,2.23,1.22,4.65.23,4.81-7.68-.83-8.28-1.52l-.61-.7s-9.78.81-12.36-.19-20.55-9.28-20.55-9.28Z" style="fill: rgb(228, 137, 123); transform-origin: 211.928px 406.624px;" id="elh54rstyawdr" class="animable"></path><path d="M199.7,384.53a9.53,9.53,0,0,1-3.41,4.23,11.47,11.47,0,0,1-7.73,2,10.65,10.65,0,0,1-7-3.62c-3.52-4.06-2.9-8.15-2.51-15.19s8.63-11.42,16-7.69S202.2,378.47,199.7,384.53Z" style="fill: rgb(228, 137, 123); transform-origin: 190.007px 376.859px;" id="ele5ccdyprff" class="animable"></path><path d="M193.2,359.51s5.61-1.3,9,2.29,2.24,11.11-1.75,14.23c0,0,1.12-1.18-1.29-4.65S193.2,359.51,193.2,359.51Z" style="fill: rgb(38, 50, 56); transform-origin: 198.699px 367.655px;" id="elkts1a36xz78" class="animable"></path><g id="el6t421eek4qf"><path d="M196.29,388.76a11.47,11.47,0,0,1-7.73,2,6.92,6.92,0,0,1,2.73-2.61A6.85,6.85,0,0,0,196.29,388.76Z" style="opacity: 0.2; isolation: isolate; transform-origin: 192.425px 389.485px;" class="animable"></path></g><path d="M184.42,382.23c-2.24,3.47-4.78,6.52-7.91,6.68a48.3,48.3,0,0,0,5.8,12.54c5.54-.24,5.22-3.6,5.22-3.6-2.14-4,1.63-7.55,4.43-9.6,0,0,0-1.85-4.61-4.87C185.28,382,184.42,382.23,184.42,382.23Z" style="fill: rgb(228, 137, 123); transform-origin: 184.235px 391.833px;" id="elgt46hbdlqlg" class="animable"></path><path d="M180.33,385.38s-5.07-2.09-6.13-13.66,10.31-15.28,22.17-11.33,3.78,20.63-7.64,26A12.86,12.86,0,0,1,180.33,385.38Z" style="fill: rgb(38, 50, 56); transform-origin: 188.169px 372.777px;" id="ell7ae30zc3pg" class="animable"></path><path d="M194.74,377.86a5.63,5.63,0,0,0,1.85,3.73c1.37,1.17,2.71-.19,2.89-2.13.14-1.73-.39-4.47-2-4.86S194.56,376,194.74,377.86Z" style="fill: rgb(228, 137, 123); transform-origin: 197.112px 378.285px;" id="el9inke8ae46l" class="animable"></path><path d="M190,390.44C186,389,184,401,186.6,404.8s18.15,8.37,18.15,8.37L209,402.75S197,392.88,190,390.44Z" style="fill: rgb(197, 63, 63); transform-origin: 197.215px 401.745px;" id="elbu3kjird8nv" class="animable"></path><g id="elm4gdb4dt0tk"><path d="M190,390.44C186,389,184,401,186.6,404.8s18.15,8.37,18.15,8.37L209,402.75S197,392.88,190,390.44Z" style="fill: rgb(255, 255, 255); opacity: 0.6; isolation: isolate; transform-origin: 197.215px 401.745px;" class="animable"></path></g><path d="M170,381.77s12.12,2.22,20,8.67S194.33,411,170.57,421c0,0-12.16-22.64-35.15-26.87C135.42,394.15,157.85,390.44,170,381.77Z" style="fill: rgb(197, 63, 63); transform-origin: 164.596px 401.385px;" id="el3jpqqach1s9" class="animable"></path><g id="eldq04bujqmj"><path d="M170,381.77s12.12,2.22,20,8.67S194.33,411,170.57,421c0,0-12.16-22.64-35.15-26.87C135.42,394.15,157.85,390.44,170,381.77Z" style="fill: rgb(255, 255, 255); opacity: 0.6; isolation: isolate; transform-origin: 164.596px 401.385px;" class="animable"></path></g></g></g><g id="freepik--Doll--inject-132" class="animable" style="transform-origin: 153.201px 341.674px;"><path d="M146.1,323.54c6.17-10.77,23.86,12.35,23.86,12.35s24.69,38.86,11,44.46S137.53,338.5,146.1,323.54Z" style="fill: rgb(197, 63, 63); transform-origin: 164.835px 350.744px;" id="elz2soyu7jv8m" class="animable"></path><g id="elqpw4utl8b2o"><path d="M146.1,323.54c6.17-10.77,23.86,12.35,23.86,12.35s24.69,38.86,11,44.46S137.53,338.5,146.1,323.54Z" style="opacity: 0.2; isolation: isolate; transform-origin: 164.835px 350.744px;" class="animable"></path></g><path d="M192.74,421.1a6,6,0,0,1-1.56.17c-7.42-.17-8.08-7.21-22.36-14.14a87.83,87.83,0,0,0-15.62-5.65S164,380.75,168.94,379.7a4.51,4.51,0,0,1,1.56,0c6.2.87,20.25,10.9,25.11,21.78,0,0,6.21-10.7,11.92-7C212.92,397.94,202,419,192.74,421.1Z" style="fill: rgb(197, 63, 63); transform-origin: 181.08px 400.452px;" id="elb4i2ty9pdq7" class="animable"></path><g id="elnqbuv8jy1k"><path d="M168.82,407.13a87.83,87.83,0,0,0-15.62-5.65S164,380.75,168.94,379.7a4.51,4.51,0,0,1,1.56,0C172.09,385.82,173.55,396.48,168.82,407.13Z" style="opacity: 0.2; isolation: isolate; transform-origin: 162.615px 393.381px;" class="animable"></path></g><path d="M170.31,386c-1.18,6.79-5.58,13-11.74,17.64-8.35,6.23-19.93,9.37-31.07,6.59a33,33,0,0,1-7.2-2.7,35.74,35.74,0,0,1-5.87-3.77C102,394,103,374.57,108,357A128.27,128.27,0,0,1,120,328.21c.72-1.22,1.41-2.31,2-3.25,0,0,30.85-.7,37.3,1.14,1.47.42,3,3,4.38,7C168.51,346.41,172.22,375,170.31,386Z" style="fill: rgb(197, 63, 63); transform-origin: 137.668px 368.039px;" id="elqpeql8ihp0k" class="animable"></path><g id="elcig8wc5uct"><path d="M158.57,403.62c-8.35,6.23-19.93,9.37-31.07,6.59-3.77-8,3.66-21.41,12.51-23.18C140,387,154.8,393.13,158.57,403.62Z" style="opacity: 0.2; isolation: isolate; transform-origin: 142.533px 399.13px;" class="animable"></path></g><path d="M148.79,430.94l-.1,0c-7.17-1.92-6.15-8.91-18.4-19a88.25,88.25,0,0,0-13.85-9.17s15.34-17.61,20.42-17.46a4.59,4.59,0,0,1,1.52.37c5.82,2.3,17.11,15.36,19.28,27.08,0,0,8.55-8.94,13.23-4a2.72,2.72,0,0,1,.7,1.43C172.82,416.59,157.26,433,148.79,430.94Z" style="fill: rgb(197, 63, 63); transform-origin: 144.049px 408.213px;" id="elc83vgi37qjn" class="animable"></path><g id="elzq5rejvkgpc"><path d="M155.29,333.76c8.24-3.56,16.22,20.9,13.73,47.22s-23.17,12.88-26.49-1.35S143.68,338.77,155.29,333.76Z" style="fill: rgb(255, 255, 255); opacity: 0.6; isolation: isolate; transform-origin: 155.473px 364.702px;" class="animable"></path></g><g id="el5k1j4bcjxb7"><path d="M163.76,333.08a28.33,28.33,0,0,1-10.56,5.16c-17.12,4.53-28.49-4.94-33.17-10,.72-1.22,1.41-2.31,2-3.25,0,0,30.85-.7,37.3,1.14C160.85,326.52,162.35,329.13,163.76,333.08Z" style="opacity: 0.2; isolation: isolate; transform-origin: 141.895px 332.146px;" class="animable"></path></g><path d="M155.48,291.56a10.24,10.24,0,0,1-2.11-1.39c-3.49-2.54-10.06-7.58-10.06-7.58a11.08,11.08,0,0,1,.45-2c.77-2.53,2.88-6.44,8.25-5.26C159.79,277.05,155.25,291,155.48,291.56Z" style="fill: rgb(197, 63, 63); transform-origin: 149.95px 283.337px;" id="el50d1u42rx7p" class="animable"></path><g id="elu89iiex7gq"><path d="M154,289.58a1.08,1.08,0,0,1-.62.59c-3.49-2.54-10.06-7.58-10.06-7.58a11.08,11.08,0,0,1,.45-2,10,10,0,0,1,5.61-.15s1.06-4,3.83-2.74S155.7,286,154,289.58Z" style="opacity: 0.2; isolation: isolate; transform-origin: 149.303px 283.812px;" class="animable"></path></g><path d="M127.88,283.16c17.41-8.54,42.26,3.81,41.61,27.13s-35.81,30.06-50.31,19.4C107.26,320.93,103.67,295,127.88,283.16Z" style="fill: rgb(197, 63, 63); transform-origin: 139.708px 307.531px;" id="elydck9or2mu" class="animable"></path><path d="M125.34,287.5s-6.3-8.34-13.36-5.43c-6.27,2.57-9.68,12.92,1.79,23.07C113.77,305.14,123.89,298.45,125.34,287.5Z" style="fill: rgb(197, 63, 63); transform-origin: 115.774px 293.297px;" id="elatkm4vtb43j" class="animable"></path><g id="eld9xwsv3xpr"><path d="M123.66,289.48s-4-5.25-8.41-3.42c-4,1.62-6.1,8.13,1.12,14.52C116.37,300.58,122.74,296.37,123.66,289.48Z" style="opacity: 0.2; isolation: isolate; transform-origin: 117.627px 293.126px;" class="animable"></path></g><polygon points="151.88 287.5 150.1 252.4 159.38 285.67 151.88 287.5" style="fill: rgb(38, 50, 56); transform-origin: 154.74px 269.95px;" id="elnntzal7qpgo" class="animable"></polygon><path d="M153.2,255a2.77,2.77,0,1,1-2.77-2.77A2.77,2.77,0,0,1,153.2,255Z" style="fill: rgb(197, 63, 63); transform-origin: 150.43px 255px;" id="elnyf43g49ml" class="animable"></path><g id="el8qccj46t5ox"><path d="M153.2,255a2.77,2.77,0,1,1-2.77-2.77A2.77,2.77,0,0,1,153.2,255Z" style="fill: rgb(255, 255, 255); opacity: 0.6; isolation: isolate; transform-origin: 150.43px 255px;" class="animable"></path></g><path d="M150.1,262.4a1,1,0,0,1-.18-2l2.89-.52a1,1,0,0,1,.35,2l-2.88.51A.55.55,0,0,1,150.1,262.4Z" style="fill: rgb(197, 63, 63); transform-origin: 151.504px 261.134px;" id="elo899g3ba22" class="animable"></path><path d="M150.43,267.07a1,1,0,0,1-1-.83,1,1,0,0,1,.8-1.16l3.73-.66a1,1,0,0,1,1.16.81,1,1,0,0,1-.81,1.16l-3.72.66Z" style="fill: rgb(197, 63, 63); transform-origin: 152.275px 265.737px;" id="elal8nu8f6vi" class="animable"></path><path d="M151,271.69a1,1,0,0,1-.18-2l4.53-.81a1,1,0,0,1,.35,2l-4.53.81Z" style="fill: rgb(197, 63, 63); transform-origin: 153.224px 270.279px;" id="elghk54xmf80g" class="animable"></path><path d="M151.06,276.41a1,1,0,0,1-.18-2l5.53-1a1,1,0,0,1,1.16.81,1,1,0,0,1-.8,1.16l-5.54,1Z" style="fill: rgb(197, 63, 63); transform-origin: 153.777px 274.904px;" id="eljjyxcs2v3v" class="animable"></path><path d="M151.54,281.05a1,1,0,0,1-.18-2l6.68-1.19a1,1,0,0,1,1.16.81,1,1,0,0,1-.81,1.16L151.71,281Z" style="fill: rgb(197, 63, 63); transform-origin: 154.832px 279.449px;" id="elqz6y2l24zvd" class="animable"></path><g id="el6rfzgatouj4"><g style="opacity: 0.6; isolation: isolate; transform-origin: 151.504px 261.134px;" class="animable"><path d="M150.1,262.4a1,1,0,0,1-.18-2l2.89-.52a1,1,0,0,1,.35,2l-2.88.51A.55.55,0,0,1,150.1,262.4Z" style="fill: rgb(255, 255, 255); transform-origin: 151.504px 261.134px;" id="eljrknj2zprj" class="animable"></path></g></g><g id="ela10p3xagyp"><g style="opacity: 0.6; isolation: isolate; transform-origin: 152.275px 265.737px;" class="animable"><path d="M150.43,267.07a1,1,0,0,1-1-.83,1,1,0,0,1,.8-1.16l3.73-.66a1,1,0,0,1,1.16.81,1,1,0,0,1-.81,1.16l-3.72.66Z" style="fill: rgb(255, 255, 255); transform-origin: 152.275px 265.737px;" id="eledaeo6z7qt" class="animable"></path></g></g><g id="elg2mvvfp3fhu"><g style="opacity: 0.6; isolation: isolate; transform-origin: 153.224px 270.279px;" class="animable"><path d="M151,271.69a1,1,0,0,1-.18-2l4.53-.81a1,1,0,0,1,.35,2l-4.53.81Z" style="fill: rgb(255, 255, 255); transform-origin: 153.224px 270.279px;" id="elay7mateqkdg" class="animable"></path></g></g><g id="ellkgopj3u1y9"><g style="opacity: 0.6; isolation: isolate; transform-origin: 153.777px 274.904px;" class="animable"><path d="M151.06,276.41a1,1,0,0,1-.18-2l5.53-1a1,1,0,0,1,1.16.81,1,1,0,0,1-.8,1.16l-5.54,1Z" style="fill: rgb(255, 255, 255); transform-origin: 153.777px 274.904px;" id="el14sdzsiykxwi" class="animable"></path></g></g><g id="elo2pr5bxjc"><g style="opacity: 0.6; isolation: isolate; transform-origin: 154.832px 279.449px;" class="animable"><path d="M151.54,281.05a1,1,0,0,1-.18-2l6.68-1.19a1,1,0,0,1,1.16.81,1,1,0,0,1-.81,1.16L151.71,281Z" style="fill: rgb(255, 255, 255); transform-origin: 154.832px 279.449px;" id="el1r8hdbt7894" class="animable"></path></g></g><path d="M177.93,300.12a94.26,94.26,0,0,1-13.79,3.15" style="fill: none; stroke: rgb(38, 50, 56); stroke-linecap: round; stroke-linejoin: round; transform-origin: 171.035px 301.695px;" id="elq3f4sut2bcb" class="animable"></path><path d="M179.63,317.87l-3.25-33.94a4.26,4.26,0,0,0-4.89-3.81l-36.62,5.69a4.87,4.87,0,0,0-4.1,5.26l3.5,37.4a4.26,4.26,0,0,0,5.28,3.73L176,323.05A4.86,4.86,0,0,0,179.63,317.87Zm-44.89-7.19c-.66,0-1.19-.7-1.19-1.58s.53-1.57,1.19-1.57,1.18.7,1.18,1.57S135.39,310.68,134.74,310.68Zm40.8-8.17c-.66,0-1.19-.71-1.19-1.58s.53-1.58,1.19-1.58,1.19.71,1.19,1.58S176.19,302.51,175.54,302.51Z" style="fill: rgb(197, 63, 63); transform-origin: 155.201px 306.199px;" id="elm01re56jaea" class="animable"></path><g id="elopaymo2s39h"><path d="M179.63,317.87l-3.25-33.94a4.26,4.26,0,0,0-4.89-3.81l-36.62,5.69a4.87,4.87,0,0,0-4.1,5.26l3.5,37.4a4.26,4.26,0,0,0,5.28,3.73L176,323.05A4.86,4.86,0,0,0,179.63,317.87Zm-44.89-7.19c-.66,0-1.19-.7-1.19-1.58s.53-1.57,1.19-1.57,1.18.7,1.18,1.57S135.39,310.68,134.74,310.68Zm40.8-8.17c-.66,0-1.19-.71-1.19-1.58s.53-1.58,1.19-1.58,1.19.71,1.19,1.58S176.19,302.51,175.54,302.51Z" style="fill: rgb(255, 255, 255); opacity: 0.6; isolation: isolate; transform-origin: 155.201px 306.199px;" class="animable"></path></g><path d="M171,287.5l.73,6.88a4,4,0,0,1-4.38,4.35l-5.76-.64Z" style="fill: rgb(197, 63, 63); transform-origin: 166.669px 293.125px;" id="el1ejhx8w9ex7i" class="animable"></path><path d="M140.41,292.55l16.85,6.29L147,303a4.38,4.38,0,0,1-6-3.66Z" style="fill: rgb(197, 63, 63); transform-origin: 148.835px 297.934px;" id="elvkuhezvmrx" class="animable"></path><path d="M147.37,311.59c4.5-1.88,13-4.79,22-4.43a4.09,4.09,0,0,1,3.89,4.11h0a4.1,4.1,0,0,1-3.7,4.09c-4.43.43-12.1,1.56-18.78,4.47a4.11,4.11,0,0,1-5.61-2.66l-.19-.68A4.11,4.11,0,0,1,147.37,311.59Z" style="fill: rgb(255, 255, 255); transform-origin: 159.045px 313.653px;" id="elz6iybzdm7cg" class="animable"></path><path d="M146.34,318c.9-1.71,1.84-3.38,2.76-5.07l.15-.26.22.21,4.26,4-.61.11c.95-2.21,2-4.38,3-6.57l.29-.64.47.53c1.33,1.48,2.68,2.94,4,4.43l-.83.16,2.12-5.81.25-.69.5.53c1.38,1.5,2.73,3,4.07,4.56l-.56.06c1-1.66,1.92-3.34,2.92-5l.17-.28.16.27c.71,1.28,1.44,2.56,2.14,3.85-.84-1.21-1.65-2.43-2.46-3.65h.32c-.85,1.73-1.76,3.43-2.64,5.15l-.21.42-.35-.35q-2.13-2.19-4.22-4.42l.75-.16-2,5.85-.27.79-.56-.62c-1.34-1.48-2.63-3-3.94-4.47l.77-.11c-1,2.16-2.06,4.34-3.15,6.49l-.24.48-.36-.37-4.06-4.16.37-.05C148.45,314.75,147.42,316.38,146.34,318Z" style="fill: rgb(197, 63, 63); transform-origin: 159.08px 313.135px;" id="el9894qhh0a9b" class="animable"></path><path d="M134.74,309.1s-15.46,2.77-24,7.12" style="fill: none; stroke: rgb(38, 50, 56); stroke-linecap: round; stroke-linejoin: round; transform-origin: 122.74px 312.66px;" id="elpp1drjpvd0h" class="animable"></path><g id="elujutiz5kacg"><path d="M120.3,407.51a35.74,35.74,0,0,1-5.87-3.77C102,394,103,374.57,108,357l18.43-6.73C128.92,357.71,132,392.22,120.3,407.51Z" style="opacity: 0.2; isolation: isolate; transform-origin: 116.633px 378.89px;" class="animable"></path></g><path d="M117.28,336.3c11.88-3.61,8.9,25.35,8.9,25.35s-8.67,45.22-22.45,39.93S100.78,341.31,117.28,336.3Z" style="fill: rgb(197, 63, 63); transform-origin: 111.977px 368.999px;" id="ellp3dxtereg" class="animable"></path><g id="eltu34xwiccmf"><path d="M192.74,421.1c.69-7.09,11.18-28.46,14.79-26.64C212.92,397.94,202,419,192.74,421.1Z" style="opacity: 0.2; isolation: isolate; transform-origin: 200.85px 407.725px;" class="animable"></path></g><g id="elbt9jfxj0me"><path d="M148.79,430.94c2-5.53,18.56-21.61,22.8-20.8C172.82,416.59,157.26,433,148.79,430.94Z" style="opacity: 0.2; isolation: isolate; transform-origin: 160.224px 420.614px;" class="animable"></path></g></g><defs>     <filter id="active" height="200%">         <feMorphology in="SourceAlpha" result="DILATED" operator="dilate" radius="2"></feMorphology>                <feFlood flood-color="#32DFEC" flood-opacity="1" result="PINK"></feFlood>        <feComposite in="PINK" in2="DILATED" operator="in" result="OUTLINE"></feComposite>        <feMerge>            <feMergeNode in="OUTLINE"></feMergeNode>            <feMergeNode in="SourceGraphic"></feMergeNode>        </feMerge>    </filter>    <filter id="hover" height="200%">        <feMorphology in="SourceAlpha" result="DILATED" operator="dilate" radius="2"></feMorphology>                <feFlood flood-color="#ff0000" flood-opacity="0.5" result="PINK"></feFlood>        <feComposite in="PINK" in2="DILATED" operator="in" result="OUTLINE"></feComposite>        <feMerge>            <feMergeNode in="OUTLINE"></feMergeNode>            <feMergeNode in="SourceGraphic"></feMergeNode>        </feMerge>            <feColorMatrix type="matrix" values="0   0   0   0   0                0   1   0   0   0                0   0   0   0   0                0   0   0   1   0 "></feColorMatrix>    </filter></defs></svg>